<svg width="630" height="121" viewBox="0 0 630 121" fill="none" xmlns="http://www.w3.org/2000/svg">
<path d="M40.375 94V72.0625H0.625V61.75L42.4375 2.375H51.625V61.75H64V72.0625H51.625V94H40.375ZM40.375 61.75V20.4375L11.6875 61.75H40.375ZM78.1225 48.8125C78.1225 37.9792 79.2267 29.2708 81.435 22.6875C83.685 16.0625 86.9975 10.9583 91.3725 7.375C95.7892 3.79167 101.331 2 107.997 2C112.914 2 117.227 3 120.935 5C124.643 6.95833 127.706 9.8125 130.122 13.5625C132.539 17.2708 134.435 21.8125 135.81 27.1875C137.185 32.5208 137.872 39.7292 137.872 48.8125C137.872 59.5625 136.768 68.25 134.56 74.875C132.352 81.4583 129.039 86.5625 124.622 90.1875C120.247 93.7708 114.706 95.5625 107.997 95.5625C99.1642 95.5625 92.2267 92.3958 87.185 86.0625C81.1433 78.4375 78.1225 66.0208 78.1225 48.8125ZM89.685 48.8125C89.685 63.8542 91.435 73.875 94.935 78.875C98.4767 83.8333 102.831 86.3125 107.997 86.3125C113.164 86.3125 117.497 83.8125 120.997 78.8125C124.539 73.8125 126.31 63.8125 126.31 48.8125C126.31 33.7292 124.539 23.7083 120.997 18.75C117.497 13.7917 113.122 11.3125 107.872 11.3125C102.706 11.3125 98.5808 13.5 95.4975 17.875C91.6225 23.4583 89.685 33.7708 89.685 48.8125ZM187.995 94V72.0625H148.245V61.75L190.057 2.375H199.245V61.75H211.62V72.0625H199.245V94H187.995ZM187.995 61.75V20.4375L159.307 61.75H187.995ZM270.365 120.938V0.8125H280.177V120.938H270.365ZM342.735 94V2.375H408.985V13.1875H354.86V41.25H405.547V52H354.86V83.1875H411.11V94H342.735ZM428.858 94V27.625H438.983V37.6875C441.566 32.9792 443.941 29.875 446.108 28.375C448.316 26.875 450.733 26.125 453.358 26.125C457.149 26.125 461.003 27.3333 464.92 29.75L461.045 40.1875C458.295 38.5625 455.545 37.75 452.795 37.75C450.337 37.75 448.128 38.5 446.17 40C444.212 41.4583 442.816 43.5 441.983 46.125C440.733 50.125 440.108 54.5 440.108 59.25V94H428.858ZM474.043 94V27.625H484.168V37.6875C486.751 32.9792 489.126 29.875 491.293 28.375C493.501 26.875 495.918 26.125 498.543 26.125C502.334 26.125 506.188 27.3333 510.105 29.75L506.23 40.1875C503.48 38.5625 500.73 37.75 497.98 37.75C495.522 37.75 493.313 38.5 491.355 40C489.397 41.4583 488.001 43.5 487.168 46.125C485.918 50.125 485.293 54.5 485.293 59.25V94H474.043ZM515.165 60.8125C515.165 48.5208 518.582 39.4167 525.415 33.5C531.123 28.5833 538.082 26.125 546.29 26.125C555.415 26.125 562.873 29.125 568.665 35.125C574.457 41.0833 577.353 49.3333 577.353 59.875C577.353 68.4167 576.061 75.1458 573.478 80.0625C570.936 84.9375 567.207 88.7292 562.29 91.4375C557.415 94.1458 552.082 95.5 546.29 95.5C536.998 95.5 529.478 92.5208 523.728 86.5625C518.019 80.6042 515.165 72.0208 515.165 60.8125ZM526.728 60.8125C526.728 69.3125 528.582 75.6875 532.29 79.9375C535.998 84.1458 540.665 86.25 546.29 86.25C551.873 86.25 556.519 84.125 560.228 79.875C563.936 75.625 565.79 69.1458 565.79 60.4375C565.79 52.2292 563.915 46.0208 560.165 41.8125C556.457 37.5625 551.832 35.4375 546.29 35.4375C540.665 35.4375 535.998 37.5417 532.29 41.75C528.582 45.9583 526.728 52.3125 526.728 60.8125ZM593.037 94V27.625H603.162V37.6875C605.746 32.9792 608.121 29.875 610.287 28.375C612.496 26.875 614.912 26.125 617.537 26.125C621.329 26.125 625.183 27.3333 629.1 29.75L625.225 40.1875C622.475 38.5625 619.725 37.75 616.975 37.75C614.517 37.75 612.308 38.5 610.35 40C608.392 41.4583 606.996 43.5 606.162 46.125C604.912 50.125 604.287 54.5 604.287 59.25V94H593.037Z" fill="black"/>
</svg>
